<svg width="1800" height="1500" viewBox="0 0 1800 1500" fill="none" xmlns="http://www.w3.org/2000/svg">
  <rect width="1800" height="1500" fill="#f3f4f2"/>
  <style>
    text { font-family: -apple-system, BlinkMacSystemFont, "SF Pro Display", "PingFang SC", "Helvetica Neue", Arial, sans-serif; }
    .label { font-size: 26px; font-weight: 650; fill: #151816; }
    .brand { font-size: 17px; font-weight: 560; }
    .title { font-size: 32px; font-weight: 560; }
    .sum { font-size: 16px; font-weight: 380; }
    .date { font-size: 20px; font-weight: 560; }
    .micro { font-size: 12px; font-weight: 520; letter-spacing: .08em; }
    .time { font-size: 24px; font-weight: 650; font-family:"DIN Alternate","Avenir Next Condensed","Helvetica Neue",Arial,sans-serif; }
    .end { font-size: 15px; font-weight: 380; font-family:"DIN Alternate","Avenir Next Condensed","Helvetica Neue",Arial,sans-serif; }
    .film { font-size: 24px; font-weight: 560; }
    .venue { font-size: 18px; font-weight: 330; }
  </style>
  <defs>
    <g id="tree-logo">
      <rect x="0" y="0" width="26" height="26" rx="7" fill="#FFFFFF"/>
      <rect x="5" y="6" width="8" height="8" fill="#75C957"/>
      <rect x="11" y="10" width="8" height="8" fill="#5AAE45"/>
      <rect x="18" y="8" width="7" height="7" fill="#75C957"/>
      <rect x="13" y="17" width="4" height="7" fill="#202823"/>
      <rect x="12" y="23" width="10" height="3" fill="#202823"/>
    </g>
  </defs>

  <text x="90" y="70" class="label">A 极简：淡日期</text>
  <g transform="translate(90 100)">
    <rect width="360" height="620" fill="#FDFDFB"/>
    <use href="#tree-logo" x="42" y="28"/>
    <text x="42" y="112" class="title" fill="#1F201E">我的</text>
    <text x="42" y="154" class="title" fill="#1F201E">2026</text>
    <text x="42" y="196" class="title" fill="#1F201E">上影节</text>
    <text x="292" y="196" text-anchor="end" class="sum" fill="#8B8D89">6 场 · 10h34m</text>
    <text x="190" y="295" fill="#E9E9E7" font-size="150" font-weight="280">13</text>
    <text x="42" y="273" class="time" fill="#1F201E">13:00</text>
    <text x="47" y="302" class="end" fill="#989A96">14:58</text>
    <text x="126" y="273" class="film" fill="#1F201E">甜蜜蜜</text>
    <text x="126" y="310" class="venue" fill="#71736F">艺海剧院</text>
    <text x="190" y="432" fill="#E9E9E7" font-size="150" font-weight="280">14</text>
    <text x="42" y="410" class="time" fill="#1F201E">20:40</text>
    <text x="47" y="439" class="end" fill="#989A96">22:41</text>
    <text x="126" y="410" class="film" fill="#1F201E">蓝丝绒 4K</text>
    <text x="126" y="447" class="venue" fill="#71736F">上海百丽宫影城</text>
    <text x="292" y="585" text-anchor="end" fill="#A2A39F" font-size="13">搜索「赶场愉快小程序」一键导出排片表</text>
  </g>

  <text x="520" y="70" class="label">B 清单：冷白节目单</text>
  <g transform="translate(520 100)">
    <rect width="360" height="620" fill="#F7F9FA"/>
    <use href="#tree-logo" x="42" y="24"/>
    <line x1="42" y1="72" x2="318" y2="72" stroke="#DFE6EA"/>
    <text x="42" y="120" class="title" fill="#182026">我的</text>
    <text x="42" y="162" class="title" fill="#182026">2026</text>
    <text x="42" y="204" class="title" fill="#182026">上影节</text>
    <text x="318" y="204" text-anchor="end" class="sum" fill="#6D7780">6 场 · 10h34m</text>
    <text x="42" y="250" class="date" fill="#3F6578">6/13 周五</text>
    <text x="258" y="250" class="micro" fill="#A2AAB0">SCREENINGS</text>
    <line x1="42" y1="268" x2="318" y2="268" stroke="#DFE6EA"/>
    <text x="42" y="322" class="time" fill="#182026">13:00</text>
    <text x="47" y="351" class="end" fill="#A2AAB0">14:58</text>
    <text x="126" y="322" class="film" fill="#182026">甜蜜蜜</text>
    <text x="126" y="359" class="venue" fill="#6D7780">艺海剧院</text>
    <line x1="42" y1="398" x2="318" y2="398" stroke="#DFE6EA"/>
    <text x="42" y="448" class="time" fill="#182026">20:40</text>
    <text x="47" y="477" class="end" fill="#A2AAB0">22:41</text>
    <text x="126" y="448" class="film" fill="#182026">蓝丝绒 4K</text>
    <text x="126" y="485" class="venue" fill="#6D7780">上海百丽宫影城</text>
    <line x1="42" y1="524" x2="318" y2="524" stroke="#DFE6EA"/>
    <text x="42" y="574" class="time" fill="#182026">09:00</text>
    <text x="47" y="603" class="end" fill="#A2AAB0">12:27</text>
    <text x="126" y="574" class="film" fill="#182026">七武士 4K</text>
  </g>

  <text x="950" y="70" class="label">C 夜场：黑底卡片</text>
  <g transform="translate(950 100)">
    <rect width="360" height="620" fill="#17191C"/>
    <use href="#tree-logo" x="42" y="26"/>
    <text x="42" y="110" class="title" fill="#F4F2EC">我的</text>
    <text x="42" y="152" class="title" fill="#F4F2EC">2026</text>
    <text x="42" y="194" class="title" fill="#F4F2EC">上影节</text>
    <text x="318" y="194" text-anchor="end" class="sum" fill="#71756F">6 场 · 10h34m</text>
    <rect x="42" y="236" width="118" height="36" rx="18" fill="#22252A"/>
    <text x="58" y="260" fill="#F4F2EC" font-size="17" font-weight="520">6/13 周五</text>
    <line x1="174" y1="254" x2="318" y2="254" stroke="#34383D"/>
    <rect x="30" y="306" width="300" height="96" rx="16" fill="#22252A"/>
    <line x1="122" y1="326" x2="122" y2="376" stroke="#34383D"/>
    <text x="44" y="354" class="time" fill="#F4F2EC">13:00</text>
    <text x="49" y="383" class="end" fill="#71756F">14:58</text>
    <text x="142" y="354" class="film" fill="#F4F2EC">甜蜜蜜</text>
    <text x="142" y="389" class="venue" fill="#A8AAA6">艺海剧院</text>
    <rect x="30" y="426" width="300" height="96" rx="16" fill="#22252A"/>
    <line x1="122" y1="446" x2="122" y2="496" stroke="#34383D"/>
    <text x="44" y="474" class="time" fill="#F4F2EC">20:40</text>
    <text x="49" y="503" class="end" fill="#71756F">22:41</text>
    <text x="142" y="474" class="film" fill="#F4F2EC">蓝丝绒 4K</text>
    <text x="142" y="509" class="venue" fill="#A8AAA6">上海百丽宫影城</text>
    <rect x="30" y="546" width="300" height="58" rx="16" fill="#22252A"/>
    <text x="44" y="584" class="time" fill="#F4F2EC">09:00</text>
    <text x="142" y="584" class="film" fill="#F4F2EC">七武士 4K</text>
  </g>

  <text x="1380" y="70" class="label">D 票根：分栏块面</text>
  <g transform="translate(1380 100)">
    <rect width="360" height="620" fill="#F2F3F1"/>
    <use href="#tree-logo" x="36" y="24"/>
    <text x="36" y="104" class="title" fill="#151816">我的</text>
    <text x="36" y="146" class="title" fill="#151816">2026</text>
    <text x="36" y="188" class="title" fill="#151816">上影节</text>
    <text x="318" y="188" text-anchor="end" class="sum" fill="#9CA29E">6 场 · 10h34m</text>
    <rect x="36" y="226" width="112" height="42" rx="8" fill="#151816"/>
    <text x="50" y="254" fill="#F2F3F1" font-size="17" font-weight="560">6/13 周五</text>
    <line x1="164" y1="247" x2="318" y2="247" stroke="#DADDD8"/>
    <rect x="134" y="298" width="174" height="96" rx="16" fill="#FFFFFF"/>
    <text x="42" y="346" class="time" fill="#151816">13:00</text>
    <text x="47" y="375" class="end" fill="#9CA29E">14:58</text>
    <text x="156" y="346" class="film" fill="#151816">甜蜜蜜</text>
    <text x="156" y="383" class="venue" fill="#666D69">艺海剧院</text>
    <rect x="134" y="420" width="174" height="96" rx="16" fill="#FFFFFF"/>
    <text x="42" y="468" class="time" fill="#151816">20:40</text>
    <text x="47" y="497" class="end" fill="#9CA29E">22:41</text>
    <text x="156" y="468" class="film" fill="#151816">蓝丝绒 4K</text>
    <text x="156" y="505" class="venue" fill="#666D69">上海百丽宫影城</text>
    <rect x="134" y="542" width="174" height="58" rx="16" fill="#FFFFFF"/>
    <text x="42" y="580" class="time" fill="#151816">09:00</text>
    <text x="156" y="580" class="film" fill="#151816">七武士 4K</text>
  </g>
</svg>
